<?xml version="1.0" encoding="UTF-8"?>
<svg version="1.1" xmlns="http://www.w3.org/2000/svg" width="1000" height="1000">
<path d="M0 0 C1.87824463 -0.01052147 1.87824463 -0.01052147 3.79443359 -0.02125549 C7.81351653 -0.03866658 11.83244995 -0.04568939 15.8515625 -0.046875 C16.53603706 -0.04731686 17.22051163 -0.04775871 17.92572784 -0.04821396 C38.26281397 -0.05510132 58.31153058 0.23128349 78.4765625 3.203125 C79.71712402 3.37473145 80.95768555 3.54633789 82.23583984 3.72314453 C143.20912845 12.24645621 202.60191161 32.53775495 255.4765625 64.203125 C256.38229004 64.74324219 257.28801758 65.28335938 258.22119141 65.83984375 C284.30943756 81.47700571 308.63094043 99.58139598 331.1171875 120.0625 C332.61442416 121.42092002 334.12360658 122.7663792 335.6484375 124.09375 C341.7236175 129.41476972 347.44576749 135.06537913 353.1640625 140.765625 C353.97222412 141.56919434 354.78038574 142.37276367 355.61303711 143.20068359 C360.44068448 148.04073626 365.03452396 153.00873377 369.4765625 158.203125 C370.42594453 159.28615558 371.37641294 160.36823511 372.328125 161.44921875 C380.1291222 170.39247004 387.39446536 179.68327335 394.4765625 189.203125 C395.01958008 189.93047852 395.56259766 190.65783203 396.12207031 191.40722656 C409.33186207 209.16941238 420.72360755 227.87023225 431.4765625 247.203125 C431.87439941 247.91082031 432.27223633 248.61851562 432.68212891 249.34765625 C460.28453014 298.64193154 476.76164439 355.1269204 483.7265625 411.015625 C483.85118866 412.01456787 483.85118866 412.01456787 483.97833252 413.03369141 C485.60934054 426.26539256 486.62951987 439.38708664 486.6796875 452.7265625 C486.68670181 453.9787709 486.69371613 455.23097931 486.70094299 456.52113342 C486.71835341 460.54017058 486.72537678 464.55905823 486.7265625 468.578125 C486.72700436 469.26245228 486.72744621 469.94677956 486.72790146 470.65184402 C486.73478758 490.97979018 486.50282601 511.05242456 483.4765625 531.203125 C483.29963867 532.42725098 483.12271484 533.65137695 482.94042969 534.91259766 C476.27351619 580.20500565 463.82842618 623.86252534 444.71679688 665.49658203 C443.61502067 667.90097001 442.53426848 670.31329689 441.4609375 672.73046875 C435.9438887 684.99313472 429.25738949 696.60358265 422.4765625 708.203125 C422.0031543 709.01458984 421.52974609 709.82605469 421.04199219 710.66210938 C405.61938174 736.92613669 387.11278637 761.34158901 366.6171875 783.84375 C365.25876748 785.34098666 363.9133083 786.85016908 362.5859375 788.375 C357.26491778 794.45018 351.61430837 800.17232999 345.9140625 805.890625 C345.11049316 806.69878662 344.30692383 807.50694824 343.47900391 808.33959961 C338.63895124 813.16724698 333.67095373 817.76108646 328.4765625 822.203125 C327.39353192 823.15250703 326.31145239 824.10297544 325.23046875 825.0546875 C316.28721746 832.8556847 306.99641415 840.12102786 297.4765625 847.203125 C296.74920898 847.74614258 296.02185547 848.28916016 295.27246094 848.84863281 C277.51597112 862.05418843 258.82368343 873.486483 239.4765625 884.203125 C238.3019043 884.85643799 238.3019043 884.85643799 237.10351562 885.52294922 C188.24695438 912.51443516 133.57181521 928.5818178 78.4765625 936.203125 C77.35588379 936.36828613 76.23520508 936.53344727 75.08056641 936.70361328 C36.57759543 942.20728999 -6.07546047 941.97730194 -44.5234375 936.203125 C-45.74756348 936.02620117 -46.97168945 935.84927734 -48.23291016 935.66699219 C-93.52531815 929.00007869 -137.18283784 916.55498868 -178.81689453 897.44335938 C-181.22128251 896.34158317 -183.63360939 895.26083098 -186.05078125 894.1875 C-226.66133719 875.91966044 -264.32210194 849.25712809 -297.1640625 819.34375 C-298.66129916 817.98532998 -300.17048158 816.6398708 -301.6953125 815.3125 C-307.7704925 809.99148028 -313.49264249 804.34087087 -319.2109375 798.640625 C-320.01909912 797.83705566 -320.82726074 797.03348633 -321.65991211 796.20556641 C-326.48755948 791.36551374 -331.08139896 786.39751623 -335.5234375 781.203125 C-336.47281953 780.12009442 -337.42328794 779.03801489 -338.375 777.95703125 C-346.1759972 769.01377996 -353.44134036 759.72297665 -360.5234375 750.203125 C-361.06645508 749.47577148 -361.60947266 748.74841797 -362.16894531 747.99902344 C-375.37873707 730.23683762 -386.77048255 711.53601775 -397.5234375 692.203125 C-397.92127441 691.49542969 -398.31911133 690.78773438 -398.72900391 690.05859375 C-426.33140514 640.76431846 -442.80851939 584.2793296 -449.7734375 528.390625 C-449.85652161 527.72466309 -449.93960571 527.05870117 -450.02520752 526.37255859 C-451.65621554 513.14085744 -452.67639487 500.01916336 -452.7265625 486.6796875 C-452.73708397 484.80137489 -452.73708397 484.80137489 -452.74781799 482.88511658 C-452.76522841 478.86607942 -452.77225178 474.84719177 -452.7734375 470.828125 C-452.77387936 470.14379772 -452.77432121 469.45947044 -452.77477646 468.75440598 C-452.78166258 448.42645982 -452.54970101 428.35382544 -449.5234375 408.203125 C-449.34651367 406.97899902 -449.16958984 405.75487305 -448.98730469 404.49365234 C-442.32010173 359.19927782 -429.80126287 315.61497556 -410.77978516 273.95800781 C-409.67371442 271.53264788 -408.58585822 269.10023847 -407.50390625 266.6640625 C-389.22687408 226.05905115 -362.57706606 188.40404936 -332.6640625 155.5625 C-331.30564248 154.06526334 -329.9601833 152.55608092 -328.6328125 151.03125 C-323.31179278 144.95607 -317.66118337 139.23392001 -311.9609375 133.515625 C-311.15736816 132.70746338 -310.35379883 131.89930176 -309.52587891 131.06665039 C-304.6851905 126.23836891 -299.70841929 121.65660432 -294.5234375 117.203125 C-293.40158301 116.20543974 -292.28172543 115.20550365 -291.1640625 114.203125 C-281.07664268 105.23900274 -270.42466298 97.14778943 -259.5234375 89.203125 C-258.42878174 88.40044189 -258.42878174 88.40044189 -257.31201172 87.58154297 C-240.85020469 75.54926416 -223.47696747 64.98610166 -205.54345703 55.30126953 C-203.69190775 54.29471059 -201.85426353 53.2672631 -200.01953125 52.23046875 C-151.77427683 25.50073166 -96.25190112 9.750086 -41.7109375 2.953125 C-41.04497559 2.87004089 -40.37901367 2.78695679 -39.69287109 2.70135498 C-26.46116989 1.07034695 -13.33947592 0.05016785 0 0 Z " fill="#1A202C" transform="translate(481.5234375,29.796875)"/>
<path d="M0 0 C1.87824463 -0.01052147 1.87824463 -0.01052147 3.79443359 -0.02125549 C7.81351653 -0.03866658 11.83244995 -0.04568939 15.8515625 -0.046875 C16.53603706 -0.04731686 17.22051163 -0.04775871 17.92572784 -0.04821396 C38.26281397 -0.05510132 58.31153058 0.23128349 78.4765625 3.203125 C79.71712402 3.37473145 80.95768555 3.54633789 82.23583984 3.72314453 C143.20912845 12.24645621 202.60191161 32.53775495 255.4765625 64.203125 C256.38229004 64.74324219 257.28801758 65.28335938 258.22119141 65.83984375 C284.30943756 81.47700571 308.63094043 99.58139598 331.1171875 120.0625 C332.61442416 121.42092002 334.12360658 122.7663792 335.6484375 124.09375 C341.7236175 129.41476972 347.44576749 135.06537913 353.1640625 140.765625 C353.97222412 141.56919434 354.78038574 142.37276367 355.61303711 143.20068359 C360.44068448 148.04073626 365.03452396 153.00873377 369.4765625 158.203125 C370.42594453 159.28615558 371.37641294 160.36823511 372.328125 161.44921875 C380.1291222 170.39247004 387.39446536 179.68327335 394.4765625 189.203125 C395.01958008 189.93047852 395.56259766 190.65783203 396.12207031 191.40722656 C409.33186207 209.16941238 420.72360755 227.87023225 431.4765625 247.203125 C431.87439941 247.91082031 432.27223633 248.61851562 432.68212891 249.34765625 C460.28453014 298.64193154 476.76164439 355.1269204 483.7265625 411.015625 C483.85118866 412.01456787 483.85118866 412.01456787 483.97833252 413.03369141 C485.60934054 426.26539256 486.62951987 439.38708664 486.6796875 452.7265625 C486.68670181 453.9787709 486.69371613 455.23097931 486.70094299 456.52113342 C486.71835341 460.54017058 486.72537678 464.55905823 486.7265625 468.578125 C486.72700436 469.26245228 486.72744621 469.94677956 486.72790146 470.65184402 C486.73478758 490.97979018 486.50282601 511.05242456 483.4765625 531.203125 C483.29963867 532.42725098 483.12271484 533.65137695 482.94042969 534.91259766 C476.27351619 580.20500565 463.82842618 623.86252534 444.71679688 665.49658203 C443.61502067 667.90097001 442.53426848 670.31329689 441.4609375 672.73046875 C435.9438887 684.99313472 429.25738949 696.60358265 422.4765625 708.203125 C422.0031543 709.01458984 421.52974609 709.82605469 421.04199219 710.66210938 C405.61938174 736.92613669 387.11278637 761.34158901 366.6171875 783.84375 C365.25876748 785.34098666 363.9133083 786.85016908 362.5859375 788.375 C357.26491778 794.45018 351.61430837 800.17232999 345.9140625 805.890625 C345.11049316 806.69878662 344.30692383 807.50694824 343.47900391 808.33959961 C338.63895124 813.16724698 333.67095373 817.76108646 328.4765625 822.203125 C327.39353192 823.15250703 326.31145239 824.10297544 325.23046875 825.0546875 C316.28721746 832.8556847 306.99641415 840.12102786 297.4765625 847.203125 C296.74920898 847.74614258 296.02185547 848.28916016 295.27246094 848.84863281 C277.51597112 862.05418843 258.82368343 873.486483 239.4765625 884.203125 C238.3019043 884.85643799 238.3019043 884.85643799 237.10351562 885.52294922 C188.24695438 912.51443516 133.57181521 928.5818178 78.4765625 936.203125 C77.35588379 936.36828613 76.23520508 936.53344727 75.08056641 936.70361328 C36.57759543 942.20728999 -6.07546047 941.97730194 -44.5234375 936.203125 C-45.74756348 936.02620117 -46.97168945 935.84927734 -48.23291016 935.66699219 C-93.52531815 929.00007869 -137.18283784 916.55498868 -178.81689453 897.44335938 C-181.22128251 896.34158317 -183.63360939 895.26083098 -186.05078125 894.1875 C-226.66133719 875.91966044 -264.32210194 849.25712809 -297.1640625 819.34375 C-298.66129916 817.98532998 -300.17048158 816.6398708 -301.6953125 815.3125 C-307.7704925 809.99148028 -313.49264249 804.34087087 -319.2109375 798.640625 C-320.01909912 797.83705566 -320.82726074 797.03348633 -321.65991211 796.20556641 C-326.48755948 791.36551374 -331.08139896 786.39751623 -335.5234375 781.203125 C-336.47281953 780.12009442 -337.42328794 779.03801489 -338.375 777.95703125 C-346.1759972 769.01377996 -353.44134036 759.72297665 -360.5234375 750.203125 C-361.06645508 749.47577148 -361.60947266 748.74841797 -362.16894531 747.99902344 C-375.37873707 730.23683762 -386.77048255 711.53601775 -397.5234375 692.203125 C-397.92127441 691.49542969 -398.31911133 690.78773438 -398.72900391 690.05859375 C-426.33140514 640.76431846 -442.80851939 584.2793296 -449.7734375 528.390625 C-449.85652161 527.72466309 -449.93960571 527.05870117 -450.02520752 526.37255859 C-451.65621554 513.14085744 -452.67639487 500.01916336 -452.7265625 486.6796875 C-452.73708397 484.80137489 -452.73708397 484.80137489 -452.74781799 482.88511658 C-452.76522841 478.86607942 -452.77225178 474.84719177 -452.7734375 470.828125 C-452.77387936 470.14379772 -452.77432121 469.45947044 -452.77477646 468.75440598 C-452.78166258 448.42645982 -452.54970101 428.35382544 -449.5234375 408.203125 C-449.34651367 406.97899902 -449.16958984 405.75487305 -448.98730469 404.49365234 C-442.32010173 359.19927782 -429.80126287 315.61497556 -410.77978516 273.95800781 C-409.67371442 271.53264788 -408.58585822 269.10023847 -407.50390625 266.6640625 C-389.22687408 226.05905115 -362.57706606 188.40404936 -332.6640625 155.5625 C-331.30564248 154.06526334 -329.9601833 152.55608092 -328.6328125 151.03125 C-323.31179278 144.95607 -317.66118337 139.23392001 -311.9609375 133.515625 C-311.15736816 132.70746338 -310.35379883 131.89930176 -309.52587891 131.06665039 C-304.6851905 126.23836891 -299.70841929 121.65660432 -294.5234375 117.203125 C-293.40158301 116.20543974 -292.28172543 115.20550365 -291.1640625 114.203125 C-281.07664268 105.23900274 -270.42466298 97.14778943 -259.5234375 89.203125 C-258.42878174 88.40044189 -258.42878174 88.40044189 -257.31201172 87.58154297 C-240.85020469 75.54926416 -223.47696747 64.98610166 -205.54345703 55.30126953 C-203.69190775 54.29471059 -201.85426353 53.2672631 -200.01953125 52.23046875 C-151.77427683 25.50073166 -96.25190112 9.750086 -41.7109375 2.953125 C-41.04497559 2.87004089 -40.37901367 2.78695679 -39.69287109 2.70135498 C-26.46116989 1.07034695 -13.33947592 0.05016785 0 0 Z M-32.5234375 40.203125 C-33.6160791 40.32671387 -34.7087207 40.45030273 -35.83447266 40.57763672 C-82.7927647 45.95006647 -127.97705648 59.74349843 -170.5234375 80.203125 C-171.37421875 80.60466797 -172.225 81.00621094 -173.1015625 81.41992188 C-206.31707656 97.11373001 -236.82543986 118.16188548 -264.5234375 142.203125 C-265.235 142.81414062 -265.9465625 143.42515625 -266.6796875 144.0546875 C-268.64395597 145.75329671 -270.58700282 147.47285066 -272.5234375 149.203125 C-273.36648438 149.95335937 -274.20953125 150.70359375 -275.078125 151.4765625 C-281.32963376 157.11816797 -287.3708413 162.94690907 -293.3359375 168.890625 C-294.39349243 169.9412915 -294.39349243 169.9412915 -295.47241211 171.01318359 C-300.02633552 175.58053091 -304.32679249 180.30714727 -308.5234375 185.203125 C-309.3690625 186.16734375 -310.2146875 187.1315625 -311.0859375 188.125 C-335.7145118 216.70046121 -355.5483263 248.61590787 -372.5234375 282.203125 C-372.89710449 282.93966309 -373.27077148 283.67620117 -373.65576172 284.43505859 C-392.11641076 321.1707781 -404.63122595 362.20854188 -410.0703125 402.97021484 C-410.53780351 406.30562215 -411.09009036 409.62008959 -411.6484375 412.94140625 C-414.51218727 431.27601624 -414.92804085 449.5369413 -414.95689392 468.07078552 C-414.96086152 470.04040535 -414.97006472 472.01001241 -414.97937012 473.97961426 C-415.03477133 491.91761205 -413.93622632 509.42852521 -411.5234375 527.203125 C-411.41657623 528.00574768 -411.30971497 528.80837036 -411.19961548 529.63531494 C-410.6051476 534.04499958 -409.934173 538.43786189 -409.2109375 542.828125 C-408.89564087 544.75350098 -408.89564087 544.75350098 -408.57397461 546.71777344 C-405.40890601 565.61976793 -400.73211818 584.07932855 -394.5234375 602.203125 C-394.17297363 603.23775879 -393.82250977 604.27239258 -393.46142578 605.33837891 C-387.66231269 622.36237417 -381.13201565 638.90665802 -373.5234375 655.203125 C-373.12721191 656.05745117 -372.73098633 656.91177734 -372.32275391 657.79199219 C-355.38178875 693.96614612 -332.16402021 728.08209019 -305.078125 757.40234375 C-303.11526819 759.5542831 -301.20690388 761.72991308 -299.30859375 763.9375 C-295.10661604 768.75377871 -290.61468893 773.25845619 -286.0859375 777.765625 C-285.27833984 778.57708984 -284.47074219 779.38855469 -283.63867188 780.22460938 C-278.76243697 785.09298572 -273.75634409 789.72286328 -268.5234375 794.203125 C-267.47514819 795.12860881 -266.42819558 796.05560969 -265.3828125 796.984375 C-204.54098995 850.46267681 -126.77912477 886.30976718 -46.5234375 897.203125 C-44.49214835 897.49191226 -42.46089841 897.78097548 -40.4296875 898.0703125 C-38.4403714 898.34568742 -36.45079608 898.61919774 -34.4609375 898.890625 C-33.5939624 899.01026611 -32.7269873 899.12990723 -31.83374023 899.25317383 C-16.66555947 901.22071416 -1.48885084 901.38957518 13.7824707 901.38842773 C17.00941354 901.390605 20.23600824 901.40880622 23.46289062 901.42773438 C43.33787229 901.48298135 62.89636302 899.86443759 82.5390625 896.890625 C83.25615387 896.78396515 83.97324524 896.6773053 84.71206665 896.56741333 C97.11917009 894.71255008 109.32013648 892.32198251 121.4765625 889.203125 C122.17185059 889.0292627 122.86713867 888.85540039 123.58349609 888.67626953 C150.79412547 881.86197803 177.06236557 872.01165469 202.4765625 860.203125 C203.33523926 859.80544922 204.19391602 859.40777344 205.07861328 858.99804688 C233.87744111 845.50876037 260.5566516 827.86519394 285.4765625 808.203125 C286.49363281 807.40132812 287.51070312 806.59953125 288.55859375 805.7734375 C294.4116424 801.06755289 299.96445753 796.09272208 305.45703125 790.9765625 C307.67482161 788.91571771 309.94675188 786.93088272 312.2421875 784.95703125 C317.04940613 780.76702872 321.54228435 776.28393601 326.0390625 771.765625 C326.85052734 770.95802734 327.66199219 770.15042969 328.49804688 769.31835938 C333.36590871 764.44263981 338.00404866 759.44227423 342.4765625 754.203125 C343.3221875 753.23890625 344.1678125 752.2746875 345.0390625 751.28125 C364.36035429 728.86359734 381.29804857 704.17126933 395.4765625 678.203125 C396.19489258 676.89190674 396.19489258 676.89190674 396.92773438 675.55419922 C419.64696516 633.78656266 435.86315281 588.1858769 443.4765625 541.203125 C443.647323 540.16983063 443.647323 540.16983063 443.8215332 539.11566162 C447.54275209 516.45741744 448.94065869 494.10174967 448.9140625 471.140625 C448.91419342 469.9740033 448.91432434 468.80738159 448.91445923 467.60540771 C448.87247451 446.8106905 447.57338113 426.17483005 444.6640625 405.578125 C444.49302002 404.36141113 444.32197754 403.14469727 444.14575195 401.89111328 C442.67077718 391.81046472 440.68430091 381.93573839 438.19482422 372.05957031 C437.41631859 368.96354179 436.66779822 365.86090349 435.91796875 362.7578125 C421.42673095 303.82507343 393.39960805 248.52207012 355.4765625 201.203125 C354.68121094 200.19636719 353.88585937 199.18960938 353.06640625 198.15234375 C348.35995363 192.28380407 343.37450358 186.72418788 338.25 181.22265625 C336.17937538 178.9941122 334.18383965 176.71160618 332.19921875 174.40625 C328.17325286 169.78723173 323.88122957 165.46080641 319.5390625 161.140625 C318.39920898 159.9949707 318.39920898 159.9949707 317.23632812 158.82617188 C312.47925938 154.07722793 307.57783292 149.57766494 302.4765625 145.203125 C301.42834687 144.27755773 300.38139471 143.35055686 299.3359375 142.421875 C276.84557869 122.65346331 251.74166326 105.54377608 225.4765625 91.203125 C224.60241699 90.72423828 223.72827148 90.24535156 222.82763672 89.75195312 C176.94657301 64.79525074 127.3448367 48.59356203 75.6640625 41.515625 C74.87659637 41.40685028 74.08913025 41.29807556 73.27780151 41.18600464 C54.84661072 38.66020706 36.69151228 37.99707815 18.1015625 38.015625 C16.98584869 38.01622925 15.87013489 38.0168335 14.72061157 38.01745605 C-1.12670402 38.04079001 -16.77753099 38.26586421 -32.5234375 40.203125 Z " fill="#F46464" transform="translate(481.5234375,29.796875)"/>
<path d="M0 0 C0.73112617 -0.00290688 1.46225234 -0.00581376 2.21553385 -0.00880873 C4.66664616 -0.01611043 7.11750827 -0.00916461 9.56861877 -0.002285 C11.34318641 -0.00458937 13.11775309 -0.00776573 14.89231777 -0.01173949 C19.76988064 -0.02009947 24.64736539 -0.01595674 29.52492857 -0.00976706 C34.78470614 -0.00524851 40.04447011 -0.01222336 45.304245 -0.0177269 C55.60862019 -0.02662892 65.91296627 -0.02469528 76.21734262 -0.01890162 C84.59053044 -0.01438832 92.96371011 -0.01377079 101.3368988 -0.01594925 C102.52775886 -0.01625572 103.71861892 -0.01656218 104.94556564 -0.01687793 C107.36463205 -0.01751737 109.78369846 -0.0181658 112.20276487 -0.01882312 C134.89640994 -0.02452878 157.59003885 -0.01796481 180.28368127 -0.00722238 C199.76384105 0.00171334 219.243977 0.00016136 238.72413635 -0.00905991 C261.33553618 -0.01975836 283.94692185 -0.02397944 306.55832386 -0.01783538 C308.96858533 -0.01719827 311.3788468 -0.01656953 313.78910828 -0.01594925 C315.5680381 -0.01548642 315.5680381 -0.01548642 317.3829059 -0.01501425 C325.74786337 -0.01328603 334.11281187 -0.01620513 342.47776794 -0.02090836 C352.66921831 -0.02651247 362.86063786 -0.02501063 373.05208468 -0.01434687 C378.2537714 -0.00908384 383.45540669 -0.00704417 388.65709305 -0.01364517 C393.41649139 -0.01959364 398.17579052 -0.01634773 402.93517983 -0.00569007 C404.65918636 -0.00345136 406.38320122 -0.00460284 408.10720241 -0.00944164 C410.44692383 -0.01550613 412.7863036 -0.00930242 415.12600708 0 C416.42671426 0.0003247 417.72742144 0.00064941 419.06754398 0.00098395 C422.55738779 0.25127951 425.31357691 0.99011389 428.56300354 2.25168228 C428.56300354 2.91168228 428.56300354 3.57168228 428.56300354 4.25168228 C429.24362854 4.45793228 429.92425354 4.66418228 430.62550354 4.87668228 C435.62946884 7.21896391 439.50634466 10.66669396 442.56300354 15.25168228 C442.56300354 16.24168228 442.56300354 17.23168228 442.56300354 18.25168228 C443.22300354 18.25168228 443.88300354 18.25168228 444.56300354 18.25168228 C447.34287794 25.52808658 448.34136089 34.85454711 445.31300354 42.25168228 C444.73550354 43.24168228 444.15800354 44.23168228 443.56300354 45.25168228 C443.00612854 46.24168228 442.44925354 47.23168228 441.87550354 48.25168228 C438.90827598 52.10105858 435.5674181 55.47243768 431.56300354 58.25168228 C430.57300354 58.25168228 429.58300354 58.25168228 428.56300354 58.25168228 C428.56300354 58.91168228 428.56300354 59.57168228 428.56300354 60.25168228 C423.55586013 61.87807807 419.34704962 62.50316696 414.02974987 62.50895119 C413.30035661 62.51245726 412.57096336 62.51596334 411.81946728 62.51957566 C409.38023948 62.52886478 406.94125173 62.52397282 404.50201416 62.51910782 C402.73355837 62.52284533 400.96510423 62.52744725 399.19665271 62.53283846 C394.34048017 62.54507132 389.4843765 62.54480766 384.62819207 62.54244971 C379.38948195 62.54204162 374.15079394 62.55307992 368.91209412 62.56256485 C358.6499674 62.57917713 348.38786367 62.58467449 338.12572464 62.58578961 C329.78453547 62.58673992 321.44335389 62.59084939 313.10216713 62.59719086 C289.45437727 62.61480348 265.80660556 62.62402963 242.15880909 62.62252991 C240.88397304 62.62245 239.609137 62.62237008 238.29566956 62.62228775 C237.01927743 62.62220599 235.74288531 62.62212423 234.42781464 62.62203999 C213.73886612 62.62122697 193.04999038 62.64036869 172.36106291 62.66856448 C151.11881471 62.697286 129.87660202 62.7111052 108.63433391 62.70937693 C96.70799073 62.7087128 84.78172387 62.71421522 72.85539818 62.73573303 C62.70175973 62.75393511 52.54823219 62.75830008 42.3945845 62.74471419 C37.21461275 62.73817982 32.03485383 62.73808443 26.85490227 62.75542068 C22.11066033 62.77113536 17.36680028 62.76830406 12.62256775 62.75085242 C10.9086114 62.74777902 9.19462666 62.75142772 7.48070379 62.76257257 C-2.86647725 62.82538599 -11.32341693 62.19154465 -20.24949646 56.43918228 C-23.84886603 52.83981271 -26.81887205 49.1060555 -28.43699646 44.25168228 C-29.09699646 43.92168228 -29.75699646 43.59168228 -30.43699646 43.25168228 C-32.8523506 36.00561985 -32.51775854 25.5136698 -29.67918396 18.37668228 C-22.94610444 6.85845819 -13.403221 0.00334594 0 0 Z " fill="#CECBDF" transform="translate(360.43699645996094,674.7483177185059)"/>
<path d="M0 0 C0.72655104 -0.00320648 1.45310208 -0.00641296 2.20166981 -0.0097166 C4.63725458 -0.01802068 7.07259371 -0.01209091 9.50818253 -0.00622082 C11.27165013 -0.00924132 13.03511643 -0.0131303 14.79858041 -0.01781338 C19.64561429 -0.02811532 24.49257439 -0.02590596 29.33961439 -0.02163279 C34.56675106 -0.01916951 39.79386978 -0.02817484 45.02099991 -0.03567028 C55.26254535 -0.04843096 65.50406459 -0.05020922 75.74561664 -0.04787002 C84.07014363 -0.04608802 92.39466266 -0.04783396 100.71918869 -0.05209446 C101.90334313 -0.05268965 103.08749757 -0.05328484 104.30753548 -0.05389806 C106.71306497 -0.0551098 109.11859445 -0.05632393 111.52412394 -0.05754044 C134.09294267 -0.06842151 156.66174647 -0.06625096 179.23056605 -0.06015559 C199.8775333 -0.05498743 220.52445334 -0.06623823 241.17141125 -0.08525381 C262.36842656 -0.10462639 283.56541955 -0.11288913 304.76244378 -0.10913056 C316.66419416 -0.10721744 328.56590439 -0.10971673 340.46764755 -0.1238451 C350.60116889 -0.13575256 360.73462536 -0.13717099 370.86814758 -0.12505493 C376.03795056 -0.11916147 381.20763485 -0.11807977 386.37742996 -0.13005733 C391.11240535 -0.14089991 395.84716272 -0.13783203 400.58212784 -0.12379565 C402.29274756 -0.12114423 404.00338427 -0.12352924 405.71398732 -0.13153151 C418.78492959 -0.18842124 428.60929057 0.3976601 438.40228653 9.83650684 C445.47129455 17.59486848 446.97057164 24.10778251 446.83978653 34.48885059 C446.55570483 39.05309658 445.60170606 42.1787076 443.60541153 46.25447559 C442.94541153 46.25447559 442.28541153 46.25447559 441.60541153 46.25447559 C441.41978653 46.95572559 441.23416153 47.65697559 441.04291153 48.37947559 C437.7882842 54.88873025 431.18689174 58.60831345 424.60541153 61.25447559 C420.89886083 62.44921817 417.36129517 62.38215141 413.48536015 62.38590336 C412.76419395 62.38795599 412.04302775 62.39000863 411.30000803 62.39212346 C408.87077105 62.39780154 406.44159063 62.39633521 404.01234818 62.39491749 C402.25814457 62.39750066 400.50394155 62.40051369 398.74973935 62.40392089 C393.91907888 62.41199978 389.08843327 62.41378096 384.25776684 62.41451836 C379.05175001 62.41636737 373.84574092 62.42391395 368.63972855 62.43065357 C357.25129561 62.44424383 345.8628662 62.45026272 334.47442651 62.45466423 C327.36522169 62.45742553 320.25601824 62.46166269 313.14681435 62.4661684 C293.4687728 62.47836207 273.79073235 62.48866113 254.11268711 62.4920435 C252.22299033 62.49237284 252.22299033 62.49237284 250.29511787 62.49270885 C249.03228156 62.49292712 247.76944525 62.4931454 246.46834117 62.49337029 C243.90929496 62.49381376 241.35024875 62.49426033 238.79120255 62.49470997 C237.52182345 62.4949314 236.25244436 62.49515283 234.94459923 62.49538097 C214.37443007 62.49932928 193.80429633 62.51678389 173.23414085 62.54006949 C152.12194767 62.56377603 131.00977226 62.57624503 109.89756554 62.57741141 C98.04108546 62.57832858 86.18465151 62.58409128 74.32818413 62.60223103 C64.23228581 62.6176226 54.13644789 62.62275804 44.04054008 62.61449292 C38.88909895 62.61058307 33.7377795 62.61153246 28.5863533 62.62555027 C23.86924272 62.63826889 19.15234549 62.63710954 14.43523528 62.62495956 C12.72995498 62.62299903 11.02465967 62.62609741 9.31940047 62.63480392 C-2.7365291 62.69245396 -13.28541179 62.17147555 -22.39458847 53.25447559 C-24.09640424 51.03672472 -25.61109164 48.78626125 -27.07036972 46.40291309 C-28.3191757 44.22136528 -28.3191757 44.22136528 -30.03130722 42.48885059 C-32.05103957 39.17857294 -31.92626705 35.8967583 -31.89458847 32.12947559 C-31.89031845 31.37045948 -31.88604843 30.61144337 -31.88164902 29.82942677 C-31.68645345 23.36038369 -30.14959206 18.58616578 -26.39458847 13.25447559 C-26.01044785 12.67439747 -25.62630722 12.09431934 -25.23052597 11.49666309 C-19.16235764 3.28193182 -9.87455305 0.00662227 0 0 Z " fill="#CECBDF" transform="translate(360.394588470459,285.7455244064331)"/>
<path d="M0 0 C1.10463934 -0.00480972 1.10463934 -0.00480972 2.23159462 -0.0097166 C4.70676268 -0.01803803 7.18169011 -0.01208485 9.65686226 -0.00622082 C11.44635367 -0.00924053 13.23584379 -0.0131291 15.02533162 -0.01781338 C19.94882576 -0.02812545 24.87224734 -0.02590341 29.79574752 -0.02163279 C35.10328129 -0.01917137 40.41079733 -0.02817245 45.71832466 -0.03567028 C56.11875505 -0.04843567 66.51915964 -0.05020868 76.91959654 -0.04787002 C85.37146153 -0.04608873 93.82331867 -0.04783243 102.27518272 -0.05209446 C104.07789513 -0.05298724 104.07789513 -0.05298724 105.91702596 -0.05389806 C108.35831617 -0.05510978 110.79960639 -0.05632392 113.2408966 -0.05754044 C136.14821397 -0.0684231 159.05551664 -0.06625007 181.96283485 -0.06015559 C202.92875186 -0.05498596 223.89462242 -0.06624181 244.86053024 -0.08525381 C266.37729286 -0.10461607 287.89403348 -0.11289103 309.41080487 -0.10913056 C321.49523899 -0.10721604 333.57963356 -0.10973042 345.66406059 -0.1238451 C355.95176838 -0.13573935 366.23941229 -0.1371858 376.52712093 -0.12505493 C381.77755528 -0.11915245 387.02787267 -0.11810457 392.27829933 -0.13005733 C397.08347277 -0.14086948 401.88843094 -0.1378686 406.69359411 -0.12379565 C408.43312689 -0.12113581 410.17267628 -0.12355542 411.91219281 -0.13153151 C414.27541177 -0.1416164 416.63787937 -0.13323414 419.00106812 -0.12025452 C420.3140887 -0.12030953 421.62710928 -0.12036455 422.97991836 -0.12042123 C427.16246031 0.30959118 429.87382648 1.42180295 433.6263752 3.25447559 C433.6263752 3.91447559 433.6263752 4.57447559 433.6263752 5.25447559 C434.3482502 5.46072559 435.0701252 5.66697559 435.8138752 5.87947559 C439.49507738 7.67917444 441.24842547 9.95176764 443.6263752 13.25447559 C444.4388752 15.62947559 444.4388752 15.62947559 444.6263752 17.25447559 C445.2863752 17.25447559 445.9463752 17.25447559 446.6263752 17.25447559 C449.55044294 24.90831028 449.82289626 33.19959865 447.5013752 41.06697559 C446.8826252 42.11885059 446.2638752 43.17072559 445.6263752 44.25447559 C445.20098457 44.99310841 444.77559395 45.73174122 444.3373127 46.49275684 C439.69029858 54.08453659 434.10346139 58.41233331 425.6263752 61.25447559 C421.98978239 61.63167375 421.98978239 61.63167375 418.02506542 61.63479233 C417.28831948 61.63945225 416.55157353 61.64411217 415.79250196 61.64891329 C413.32817582 61.66084718 410.86440266 61.65147429 408.4000721 61.64215565 C406.61369029 61.64632927 404.82731113 61.65180694 403.04093689 61.65847546 C398.13526297 61.672945 393.22975684 61.66868061 388.32407367 61.66130865 C383.03222627 61.65658304 377.74041549 61.66908142 372.44857979 61.67932606 C362.08283608 61.6965311 351.71715294 61.69735055 341.35139865 61.69211315 C332.92723742 61.68807353 324.5030941 61.68951255 316.07893372 61.69486141 C314.28122391 61.69598405 314.28122391 61.69598405 312.44719673 61.69712936 C310.01259232 61.69866082 307.5779879 61.70019916 305.1433835 61.70174433 C282.30707699 61.71547545 259.47080473 61.71002729 236.63449901 61.69855911 C215.73726773 61.68862529 194.84012497 61.70156892 173.94290734 61.7254933 C152.49048247 61.74986848 131.03809885 61.75949611 109.5856604 61.75284058 C97.53977855 61.74934495 85.49396481 61.75160317 73.44809341 61.76909161 C63.19411423 61.78379376 52.9402511 61.78447497 42.68627424 61.76702069 C37.45389831 61.75849213 32.22172988 61.75640649 26.98936462 61.77167225 C22.19957777 61.78547387 17.41017708 61.78081454 12.62041282 61.76143301 C10.88765249 61.75765879 9.15486156 61.76063578 7.42212839 61.77104466 C-2.58805054 61.82690207 -10.16389549 61.85842243 -18.0611248 54.87947559 C-18.8242498 54.01322559 -19.5873748 53.14697559 -20.3736248 52.25447559 C-21.6420623 50.86228809 -21.6420623 50.86228809 -22.9361248 49.44197559 C-29.32832191 41.41127226 -30.34895992 34.53763844 -29.3736248 24.25447559 C-27.61951716 15.35346655 -21.52472486 8.69638525 -14.40096855 3.48103809 C-9.56218504 0.55352745 -5.64629907 0.00372827 0 0 Z " fill="#CFCCE0" transform="translate(358.37362480163574,480.7455244064331)"/>
<path d="M0 0 C0 0.66 0 1.32 0 2 C0.7321875 2.23847656 1.464375 2.47695313 2.21875 2.72265625 C9.49529163 6.06455107 15.21158325 14.34122135 18.18359375 21.62109375 C21.04608603 33.46825078 20.39822742 46.47127133 14 57 C9.6703941 63.8113403 3.37806127 71.66684678 -4.7734375 73.6875 C-5.50820312 73.790625 -6.24296875 73.89375 -7 74 C-7 74.66 -7 75.32 -7 76 C-20.59352827 79.56551561 -33.43122846 78.42364969 -45.77734375 71.42578125 C-55.10760023 64.58359316 -62.20139534 54.54104655 -64 43 C-65.09327263 28.74060132 -62.66460151 18.34311368 -53.18359375 7.1953125 C-48.54871734 2.53556198 -43.22739418 -0.88170529 -37 -3 C-35.68 -3 -34.36 -3 -33 -3 C-33 -3.66 -33 -4.32 -33 -5 C-21.30715955 -8.89761348 -10.66314796 -4.65301002 0 0 Z " fill="#CDCADE" transform="translate(249,283)"/>
<path d="M0 0 C0 0.66 0 1.32 0 2 C1.09828125 2.14695312 1.09828125 2.14695312 2.21875 2.296875 C8.69626462 3.93444892 14.6905275 9.99545129 19 15 C19 15.99 19 16.98 19 18 C19.66 18 20.32 18 21 18 C27.54699406 28.19460503 27.71167954 40.49476004 25.37109375 52.125 C24.47021343 54.64584896 23.41184237 56.7266945 22 59 C21.44054687 59.92039062 20.88109375 60.84078125 20.3046875 61.7890625 C12.81677603 73.03608743 3.00984913 78.69614441 -10 82 C-17.22854846 82.98061704 -23.34940816 81.85686293 -30 79 C-30.81339844 78.67128906 -31.62679687 78.34257813 -32.46484375 78.00390625 C-42.24931358 73.64687731 -48.68277137 66.79412133 -53.22265625 57.1640625 C-54 55 -54 55 -54 52 C-54.66 52 -55.32 52 -56 52 C-57.75309603 42.82452158 -58.74455807 32.34387798 -54 24 C-53.64808594 23.21238281 -53.29617187 22.42476562 -52.93359375 21.61328125 C-50.19895377 15.57541277 -47.11075637 11.22102955 -42 7 C-41.34257812 6.4534375 -40.68515625 5.906875 -40.0078125 5.34375 C-29.11495619 -2.7959668 -12.65889864 -4.79243372 0 0 Z " fill="#CDCADE" transform="translate(242,664)"/>
<path d="M0 0 C5.01215771 4.44639746 9.5626156 8.63571852 12 15 C12.50917969 16.19753906 13.01835937 17.39507812 13.54296875 18.62890625 C15.20736007 23.09189925 15.50137236 27.14286924 15.4375 31.875 C15.42992676 32.66511475 15.42235352 33.45522949 15.41455078 34.26928711 C15.2385405 40.51893669 14.17983988 45.54603315 11 51 C10.55269531 51.77601563 10.10539062 52.55203125 9.64453125 53.3515625 C5.21724137 60.4494696 -0.01717543 66.91572687 -8 70 C-8.99 70 -9.98 70 -11 70 C-11 70.66 -11 71.32 -11 72 C-21.23821996 74.87388631 -33.35723971 76.27057705 -43 71 C-43.79792969 70.5978125 -44.59585938 70.195625 -45.41796875 69.78125 C-54.59223187 64.78467704 -61.08449517 57.68472693 -65 48 C-65.29777344 47.360625 -65.59554687 46.72125 -65.90234375 46.0625 C-69.41780377 37.50875396 -69.57665648 26.16724579 -66.375 17.5 C-61.31897932 6.90896722 -52.89596887 -2.40466552 -42 -7 C-27.25865822 -11.72510455 -12.05233453 -9.71758909 0 0 Z " fill="#CDCADE" transform="translate(253,479)"/>
<path d="M0 0 C0.66 0.33 1.32 0.66 2 1 C-2.29 5.29 -6.58 9.58 -11 14 C-11 9.40845608 -8.09282279 7.18698368 -5 4 C-3.3719908 2.61973133 -1.71956118 1.26438322 0 0 Z " fill="#AAA8B9" transform="translate(203,284)"/>
<path d="M0 0 C0 3 0 3 -2.5 5.6875 C-3.325 6.450625 -4.15 7.21375 -5 8 C-5.66 7.67 -6.32 7.34 -7 7 C-4.78071806 4.09197539 -3.07030857 2.04687238 0 0 Z " fill="#ABA9BB" transform="translate(342,291)"/>
</svg>
